<svg width="421" height="58" viewBox="0 0 221 38" fill="none" xmlns="http://www.w3.org/2000/svg">
<path d="M59.008 12.736C60.184 12.736 60.184 14.392 59.008 14.392H53.656L53.68 27.112C53.68 27.712 53.176 28 52.768 28C52.36 28 51.904 27.712 51.904 27.112V14.392H46.576C45.448 14.392 45.448 12.736 46.576 12.736H59.008ZM63.7088 22.672V27.16C63.7088 27.712 63.2768 28 62.8208 28C62.3888 28 61.9568 27.712 61.9568 27.184V13.576C61.9568 13.072 62.3168 12.736 62.8448 12.736H68.5328C72.6848 12.736 74.7968 15.088 74.7968 17.896C74.7968 20.32 73.4768 22.072 70.5248 22.576L74.1968 26.536C74.8688 27.208 74.2928 28 73.6448 28C73.4288 28 73.1888 27.904 72.9968 27.688L68.3648 22.672H63.7088ZM63.7088 21.16H68.5568C71.6528 21.16 73.0208 19.744 73.0208 17.992C72.9968 15.928 71.3408 14.344 68.5568 14.344H63.7088V21.16ZM78.0779 13.624C78.0779 13.024 78.5339 12.736 78.9659 12.736C79.4219 12.736 79.8779 13.024 79.8779 13.624V27.16C79.8779 27.712 79.4219 28 78.9659 28C78.5099 28 78.0779 27.736 78.0779 27.16V13.624ZM89.7833 12.496C90.0953 12.496 90.3833 12.64 90.5513 12.952L97.6313 26.848C97.9673 27.52 97.4153 28 96.8153 28C96.5033 28 96.1913 27.88 96.0233 27.544L94.2953 24.136H85.2713L83.4953 27.568C83.3273 27.88 83.0633 28 82.7753 28C82.2233 28 81.6233 27.496 81.9113 26.872L88.9913 12.952C89.1353 12.64 89.4713 12.496 89.7833 12.496ZM89.7833 15.064L85.9913 22.624H93.5513L89.7833 15.064ZM101.166 28C100.518 28 100.254 27.688 100.254 27.112V13.576C100.254 13 100.71 12.736 101.142 12.736C101.598 12.736 102.03 13 102.03 13.576V26.416H111.006C112.23 26.416 112.23 28 111.006 28H101.166ZM190.127 27.076H195.657C196.245 27.076 196.329 28 195.657 28H189.763C189.371 28 189.119 27.72 189.119 27.384V19.698C189.119 19.376 189.371 19.096 189.763 19.096H195.671C196.273 19.096 196.245 19.992 195.657 19.992H190.127V23.142H195.391C195.951 23.142 195.979 24.038 195.391 24.038H190.127V27.076ZM198.487 28C198.137 28 197.843 27.72 197.843 27.398V19.684C197.843 19.362 198.137 19.096 198.487 19.096H201.539C204.325 19.096 205.711 21.322 205.711 23.548C205.711 25.774 204.325 28 201.539 28H198.487ZM198.851 27.09H201.539C203.639 27.09 204.689 25.312 204.689 23.548C204.689 21.784 203.639 19.992 201.539 19.992H198.851V27.09ZM211.678 18.956C212.952 18.956 214.072 19.39 214.968 20.342C215.388 20.818 214.646 21.392 214.254 20.972C213.498 20.174 212.644 19.908 211.706 19.908C210.208 19.908 208.08 20.678 208.08 23.436C208.08 25.55 209.704 27.174 211.622 27.174C212.7 27.174 213.708 26.684 214.366 25.844C214.674 25.382 215.528 25.886 215.164 26.404C214.394 27.496 212.924 28.14 211.594 28.14C209.214 28.14 207.086 26.166 207.086 23.422C207.086 20.216 209.802 18.956 211.678 18.956Z" fill="#2A3547"/>
<path d="M115.81 23.512V27.184C115.81 27.736 115.378 28 114.946 28C114.514 28 114.082 27.736 114.082 27.208V13.576C114.082 13.072 114.49 12.736 114.97 12.736H120.178C124.33 12.736 126.274 15.496 126.274 18.256C126.274 21.136 124.306 23.512 120.106 23.512H115.81ZM115.81 21.952H120.106C123.298 21.952 124.57 20.08 124.57 18.256C124.57 16.288 122.986 14.296 120.202 14.296H115.81V21.952ZM136.273 28.24C131.953 28.24 128.497 25.192 128.497 20.104C128.497 14.728 132.913 12.496 136.081 12.496C139.297 12.496 143.953 14.704 143.953 20.104C143.953 25.096 140.353 28.24 136.273 28.24ZM130.297 20.176C130.297 24.112 132.889 26.608 136.273 26.608C139.513 26.608 142.177 24.208 142.177 20.176C142.177 15.784 138.601 14.104 136.129 14.104C133.681 14.104 130.297 15.664 130.297 20.176ZM147.148 13.624C147.148 13.024 147.604 12.736 148.036 12.736C148.492 12.736 148.948 13.024 148.948 13.624V27.16C148.948 27.712 148.492 28 148.036 28C147.58 28 147.148 27.736 147.148 27.16V13.624ZM163.414 13.504C163.414 13 163.87 12.736 164.35 12.736C164.782 12.736 165.238 12.976 165.238 13.504V26.968C165.238 27.664 164.686 28 164.134 28C163.726 28 163.294 27.808 163.078 27.448L154.102 15.544L154.294 18.856V27.112C154.294 27.712 153.838 28 153.382 28C152.926 28 152.47 27.712 152.47 27.112V13.792C152.47 13.096 152.926 12.736 153.43 12.736C153.79 12.736 154.174 12.928 154.414 13.288L163.654 25.432L163.414 21.808V13.504ZM180.367 12.736C181.543 12.736 181.543 14.392 180.367 14.392H175.015L175.039 27.112C175.039 27.712 174.535 28 174.127 28C173.719 28 173.263 27.712 173.263 27.112V14.392H167.935C166.807 14.392 166.807 12.736 167.935 12.736H180.367Z" fill="#3AB54A"/>
<path d="M22.0282 35.5805C20.1656 38.8065 15.5093 38.8065 13.6467 35.5805L0.655524 13.0791C-1.20701 9.85305 1.12116 5.82054 4.84624 5.82054L30.8287 5.82054C34.5537 5.82054 36.8819 9.85305 35.0194 13.0791L22.0282 35.5805Z" fill="#3AB54A"/>
<path d="M12.7565 35.0194C9.53047 36.8819 5.49796 34.5537 5.49796 30.8286L5.49796 4.84623C5.49796 1.12115 9.53048 -1.20701 12.7565 0.655525L35.2579 13.6467C38.4839 15.5093 38.4839 20.1656 35.2579 22.0282L12.7565 35.0194Z" fill="#4CDD20" fill-opacity="0.6"/>
</svg>
